<?xml version="1.0" standalone="no"?>
<!DOCTYPE svg PUBLIC "-//W3C//DTD SVG 20010904//EN"
 "http://www.w3.org/TR/2001/REC-SVG-20010904/DTD/svg10.dtd">
<svg version="1.0" xmlns="http://www.w3.org/2000/svg"
 width="384.000000pt" height="384.000000pt" viewBox="0 0 384.000000 384.000000"
 preserveAspectRatio="xMidYMid meet">
<metadata>
Created by potrace 1.11, written by Peter Selinger 2001-2013
</metadata>
<g transform="translate(0.000000,384.000000) scale(0.100000,-0.100000)"
fill="#000000" stroke="none">
<path d="M550 1840 l0 -950 590 0 590 0 0 180 0 180 -375 0 -375 0 0 770 0
770 -215 0 -215 0 0 -950z"/>
<path d="M2140 1835 l0 -955 215 0 215 0 0 370 0 370 330 0 330 0 0 180 0 180
-330 0 -330 0 2 223 3 222 383 3 382 2 0 180 0 180 -600 0 -600 0 0 -955z"/>
</g>
</svg>
