<?xml version="1.0" standalone="no"?>
<!DOCTYPE svg PUBLIC "-//W3C//DTD SVG 20010904//EN"
 "http://www.w3.org/TR/2001/REC-SVG-20010904/DTD/svg10.dtd">
<svg version="1.0" xmlns="http://www.w3.org/2000/svg"
 width="384.000000pt" height="384.000000pt" viewBox="0 0 384.000000 384.000000"
 preserveAspectRatio="xMidYMid meet">
<metadata>
Created by potrace 1.11, written by Peter Selinger 2001-2013
</metadata>
<g transform="translate(0.000000,384.000000) scale(0.100000,-0.100000)"
fill="#000000" stroke="none">
<path d="M380 2075 l0 -1155 694 0 695 0 5 53 c9 77 46 505 46 528 0 18 -11
19 -320 19 l-320 0 0 855 0 855 -400 0 -400 0 0 -1155z"/>
<path d="M2010 1590 l0 -1160 400 0 400 0 0 425 0 425 255 0 255 0 0 265 0
265 -255 0 -255 0 0 160 0 160 340 0 c270 0 340 3 340 13 0 7 11 145 25 307
14 162 25 296 25 297 0 2 -344 3 -765 3 l-765 0 0 -1160z"/>
</g>
</svg>
