<?xml version="1.0" standalone="no"?>
<!DOCTYPE svg PUBLIC "-//W3C//DTD SVG 20010904//EN"
 "http://www.w3.org/TR/2001/REC-SVG-20010904/DTD/svg10.dtd">
<svg version="1.0" xmlns="http://www.w3.org/2000/svg"
 width="384.000000pt" height="384.000000pt" viewBox="0 0 384.000000 384.000000"
 preserveAspectRatio="xMidYMid meet">
<metadata>
Created by potrace 1.11, written by Peter Selinger 2001-2013
</metadata>
<g transform="translate(0.000000,384.000000) scale(0.100000,-0.100000)"
fill="#000000" stroke="none">
<path d="M510 1840 l0 -1050 590 0 590 0 0 115 0 115 -455 0 -455 0 -2 933 -3
932 -132 3 -133 3 0 -1051z"/>
<path d="M2100 1830 l0 -1050 135 0 135 0 0 470 0 470 398 2 397 3 0 110 0
110 -397 3 -398 2 0 355 0 355 470 0 470 0 0 110 0 110 -605 0 -605 0 0 -1050z"/>
</g>
</svg>
