<?xml version="1.0" standalone="no"?>
<!DOCTYPE svg PUBLIC "-//W3C//DTD SVG 20010904//EN"
 "http://www.w3.org/TR/2001/REC-SVG-20010904/DTD/svg10.dtd">
<svg version="1.0" xmlns="http://www.w3.org/2000/svg"
 width="384.000000pt" height="384.000000pt" viewBox="0 0 384.000000 384.000000"
 preserveAspectRatio="xMidYMid meet">
<metadata>
Created by potrace 1.11, written by Peter Selinger 2001-2013
</metadata>
<g transform="translate(0.000000,384.000000) scale(0.100000,-0.100000)"
fill="#000000" stroke="none">
<path d="M490 1835 l0 -1155 590 0 590 0 0 28 c0 15 7 110 15 212 8 102 15
204 15 228 l0 42 -285 0 -285 0 0 900 0 900 -320 0 -320 0 0 -1155z"/>
<path d="M2130 1830 l0 -1160 320 0 320 0 0 455 0 455 245 0 245 0 0 245 0
245 -245 0 -245 0 0 175 0 175 304 0 305 0 5 53 c3 28 10 129 16 222 6 94 13
198 16 233 l6 62 -646 0 -646 0 0 -1160z"/>
</g>
</svg>
