<?xml version="1.0" standalone="no"?>
<!DOCTYPE svg PUBLIC "-//W3C//DTD SVG 20010904//EN"
 "http://www.w3.org/TR/2001/REC-SVG-20010904/DTD/svg10.dtd">
<svg version="1.0" xmlns="http://www.w3.org/2000/svg"
 width="384.000000pt" height="384.000000pt" viewBox="0 0 384.000000 384.000000"
 preserveAspectRatio="xMidYMid meet">
<metadata>
Created by potrace 1.11, written by Peter Selinger 2001-2013
</metadata>
<g transform="translate(0.000000,384.000000) scale(0.100000,-0.100000)"
fill="#000000" stroke="none">
<path d="M200 1845 l0 -1325 795 0 795 0 4 23 c4 20 56 617 56 644 0 10 -84
13 -367 15 l-368 3 -3 983 -2 982 -455 0 -455 0 0 -1325z"/>
<path d="M1967 3163 c-4 -3 -7 -600 -7 -1325 l0 -1318 460 0 460 0 0 480 0
480 290 0 290 0 0 310 0 310 -290 0 -290 0 0 180 0 180 385 0 384 0 5 33 c6
35 56 623 56 656 l0 21 -868 0 c-478 0 -872 -3 -875 -7z"/>
</g>
</svg>
