<?xml version="1.0" standalone="no"?>
<!DOCTYPE svg PUBLIC "-//W3C//DTD SVG 20010904//EN"
 "http://www.w3.org/TR/2001/REC-SVG-20010904/DTD/svg10.dtd">
<svg version="1.0" xmlns="http://www.w3.org/2000/svg"
 width="384.000000pt" height="384.000000pt" viewBox="0 0 384.000000 384.000000"
 preserveAspectRatio="xMidYMid meet">
<metadata>
Created by potrace 1.11, written by Peter Selinger 2001-2013
</metadata>
<g transform="translate(0.000000,384.000000) scale(0.100000,-0.100000)"
fill="#000000" stroke="none">
<path d="M270 1900 l0 -1220 690 0 690 0 0 130 0 130 -535 0 -535 0 0 1090 0
1090 -155 0 -155 0 0 -1220z"/>
<path d="M2020 1895 l0 -1225 155 0 155 0 0 550 0 550 465 0 465 0 0 130 0
130 -465 0 -465 0 0 415 0 415 550 0 551 0 -3 128 -3 127 -702 3 -703 2 0
-1225z"/>
</g>
</svg>
